%TF.GenerationSoftware,KiCad,Pcbnew,9.0.4*%
%TF.CreationDate,2025-09-09T11:26:36+01:00*%
%TF.ProjectId,dht11_m5stick,64687431-315f-46d3-9573-7469636b2e6b,rev?*%
%TF.SameCoordinates,Original*%
%TF.FileFunction,Legend,Bot*%
%TF.FilePolarity,Positive*%
%FSLAX46Y46*%
G04 Gerber Fmt 4.6, Leading zero omitted, Abs format (unit mm)*
G04 Created by KiCad (PCBNEW 9.0.4) date 2025-09-09 11:26:36*
%MOMM*%
%LPD*%
G01*
G04 APERTURE LIST*
%ADD10C,0.100000*%
G04 APERTURE END LIST*
D10*
X143128419Y-56234684D02*
X142128419Y-56234684D01*
X142128419Y-56234684D02*
X142128419Y-56472779D01*
X142128419Y-56472779D02*
X142176038Y-56615636D01*
X142176038Y-56615636D02*
X142271276Y-56710874D01*
X142271276Y-56710874D02*
X142366514Y-56758493D01*
X142366514Y-56758493D02*
X142556990Y-56806112D01*
X142556990Y-56806112D02*
X142699847Y-56806112D01*
X142699847Y-56806112D02*
X142890323Y-56758493D01*
X142890323Y-56758493D02*
X142985561Y-56710874D01*
X142985561Y-56710874D02*
X143080800Y-56615636D01*
X143080800Y-56615636D02*
X143128419Y-56472779D01*
X143128419Y-56472779D02*
X143128419Y-56234684D01*
X143128419Y-57234684D02*
X142128419Y-57234684D01*
X142604609Y-57234684D02*
X142604609Y-57806112D01*
X143128419Y-57806112D02*
X142128419Y-57806112D01*
X142128419Y-58139446D02*
X142128419Y-58710874D01*
X143128419Y-58425160D02*
X142128419Y-58425160D01*
X143128419Y-59568017D02*
X143128419Y-58996589D01*
X143128419Y-59282303D02*
X142128419Y-59282303D01*
X142128419Y-59282303D02*
X142271276Y-59187065D01*
X142271276Y-59187065D02*
X142366514Y-59091827D01*
X142366514Y-59091827D02*
X142414133Y-58996589D01*
X143128419Y-60520398D02*
X143128419Y-59948970D01*
X143128419Y-60234684D02*
X142128419Y-60234684D01*
X142128419Y-60234684D02*
X142271276Y-60139446D01*
X142271276Y-60139446D02*
X142366514Y-60044208D01*
X142366514Y-60044208D02*
X142414133Y-59948970D01*
X141029809Y-55018617D02*
X141029809Y-54685284D01*
X141553619Y-54685284D02*
X140553619Y-54685284D01*
X140553619Y-54685284D02*
X140553619Y-55161474D01*
X141553619Y-56018617D02*
X141553619Y-55542427D01*
X141553619Y-55542427D02*
X140553619Y-55542427D01*
X140553619Y-56209094D02*
X140553619Y-56780522D01*
X141553619Y-56494808D02*
X140553619Y-56494808D01*
X140648857Y-57828142D02*
X140601238Y-57875761D01*
X140601238Y-57875761D02*
X140553619Y-57970999D01*
X140553619Y-57970999D02*
X140553619Y-58209094D01*
X140553619Y-58209094D02*
X140601238Y-58304332D01*
X140601238Y-58304332D02*
X140648857Y-58351951D01*
X140648857Y-58351951D02*
X140744095Y-58399570D01*
X140744095Y-58399570D02*
X140839333Y-58399570D01*
X140839333Y-58399570D02*
X140982190Y-58351951D01*
X140982190Y-58351951D02*
X141553619Y-57780523D01*
X141553619Y-57780523D02*
X141553619Y-58399570D01*
X140553619Y-59018618D02*
X140553619Y-59113856D01*
X140553619Y-59113856D02*
X140601238Y-59209094D01*
X140601238Y-59209094D02*
X140648857Y-59256713D01*
X140648857Y-59256713D02*
X140744095Y-59304332D01*
X140744095Y-59304332D02*
X140934571Y-59351951D01*
X140934571Y-59351951D02*
X141172666Y-59351951D01*
X141172666Y-59351951D02*
X141363142Y-59304332D01*
X141363142Y-59304332D02*
X141458380Y-59256713D01*
X141458380Y-59256713D02*
X141506000Y-59209094D01*
X141506000Y-59209094D02*
X141553619Y-59113856D01*
X141553619Y-59113856D02*
X141553619Y-59018618D01*
X141553619Y-59018618D02*
X141506000Y-58923380D01*
X141506000Y-58923380D02*
X141458380Y-58875761D01*
X141458380Y-58875761D02*
X141363142Y-58828142D01*
X141363142Y-58828142D02*
X141172666Y-58780523D01*
X141172666Y-58780523D02*
X140934571Y-58780523D01*
X140934571Y-58780523D02*
X140744095Y-58828142D01*
X140744095Y-58828142D02*
X140648857Y-58875761D01*
X140648857Y-58875761D02*
X140601238Y-58923380D01*
X140601238Y-58923380D02*
X140553619Y-59018618D01*
X140648857Y-59732904D02*
X140601238Y-59780523D01*
X140601238Y-59780523D02*
X140553619Y-59875761D01*
X140553619Y-59875761D02*
X140553619Y-60113856D01*
X140553619Y-60113856D02*
X140601238Y-60209094D01*
X140601238Y-60209094D02*
X140648857Y-60256713D01*
X140648857Y-60256713D02*
X140744095Y-60304332D01*
X140744095Y-60304332D02*
X140839333Y-60304332D01*
X140839333Y-60304332D02*
X140982190Y-60256713D01*
X140982190Y-60256713D02*
X141553619Y-59685285D01*
X141553619Y-59685285D02*
X141553619Y-60304332D01*
X140553619Y-61209094D02*
X140553619Y-60732904D01*
X140553619Y-60732904D02*
X141029809Y-60685285D01*
X141029809Y-60685285D02*
X140982190Y-60732904D01*
X140982190Y-60732904D02*
X140934571Y-60828142D01*
X140934571Y-60828142D02*
X140934571Y-61066237D01*
X140934571Y-61066237D02*
X140982190Y-61161475D01*
X140982190Y-61161475D02*
X141029809Y-61209094D01*
X141029809Y-61209094D02*
X141125047Y-61256713D01*
X141125047Y-61256713D02*
X141363142Y-61256713D01*
X141363142Y-61256713D02*
X141458380Y-61209094D01*
X141458380Y-61209094D02*
X141506000Y-61161475D01*
X141506000Y-61161475D02*
X141553619Y-61066237D01*
X141553619Y-61066237D02*
X141553619Y-60828142D01*
X141553619Y-60828142D02*
X141506000Y-60732904D01*
X141506000Y-60732904D02*
X141458380Y-60685285D01*
M02*
