%TF.GenerationSoftware,KiCad,Pcbnew,9.0.4*%
%TF.CreationDate,2025-09-09T11:26:36+01:00*%
%TF.ProjectId,dht11_m5stick,64687431-315f-46d3-9573-7469636b2e6b,rev?*%
%TF.SameCoordinates,Original*%
%TF.FileFunction,Legend,Top*%
%TF.FilePolarity,Positive*%
%FSLAX46Y46*%
G04 Gerber Fmt 4.6, Leading zero omitted, Abs format (unit mm)*
G04 Created by KiCad (PCBNEW 9.0.4) date 2025-09-09 11:26:36*
%MOMM*%
%LPD*%
G01*
G04 APERTURE LIST*
%ADD10C,0.100000*%
%ADD11C,0.150000*%
%ADD12C,0.120000*%
G04 APERTURE END LIST*
D10*
X143179219Y-60275115D02*
X142179219Y-60275115D01*
X142179219Y-60275115D02*
X142179219Y-60037020D01*
X142179219Y-60037020D02*
X142226838Y-59894163D01*
X142226838Y-59894163D02*
X142322076Y-59798925D01*
X142322076Y-59798925D02*
X142417314Y-59751306D01*
X142417314Y-59751306D02*
X142607790Y-59703687D01*
X142607790Y-59703687D02*
X142750647Y-59703687D01*
X142750647Y-59703687D02*
X142941123Y-59751306D01*
X142941123Y-59751306D02*
X143036361Y-59798925D01*
X143036361Y-59798925D02*
X143131600Y-59894163D01*
X143131600Y-59894163D02*
X143179219Y-60037020D01*
X143179219Y-60037020D02*
X143179219Y-60275115D01*
X143179219Y-59275115D02*
X142179219Y-59275115D01*
X142655409Y-59275115D02*
X142655409Y-58703687D01*
X143179219Y-58703687D02*
X142179219Y-58703687D01*
X142179219Y-58370353D02*
X142179219Y-57798925D01*
X143179219Y-58084639D02*
X142179219Y-58084639D01*
X143179219Y-56941782D02*
X143179219Y-57513210D01*
X143179219Y-57227496D02*
X142179219Y-57227496D01*
X142179219Y-57227496D02*
X142322076Y-57322734D01*
X142322076Y-57322734D02*
X142417314Y-57417972D01*
X142417314Y-57417972D02*
X142464933Y-57513210D01*
X143179219Y-55989401D02*
X143179219Y-56560829D01*
X143179219Y-56275115D02*
X142179219Y-56275115D01*
X142179219Y-56275115D02*
X142322076Y-56370353D01*
X142322076Y-56370353D02*
X142417314Y-56465591D01*
X142417314Y-56465591D02*
X142464933Y-56560829D01*
X141029809Y-60830782D02*
X141029809Y-61164115D01*
X141553619Y-61164115D02*
X140553619Y-61164115D01*
X140553619Y-61164115D02*
X140553619Y-60687925D01*
X141553619Y-59830782D02*
X141553619Y-60306972D01*
X141553619Y-60306972D02*
X140553619Y-60306972D01*
X140553619Y-59640305D02*
X140553619Y-59068877D01*
X141553619Y-59354591D02*
X140553619Y-59354591D01*
X140648857Y-58021257D02*
X140601238Y-57973638D01*
X140601238Y-57973638D02*
X140553619Y-57878400D01*
X140553619Y-57878400D02*
X140553619Y-57640305D01*
X140553619Y-57640305D02*
X140601238Y-57545067D01*
X140601238Y-57545067D02*
X140648857Y-57497448D01*
X140648857Y-57497448D02*
X140744095Y-57449829D01*
X140744095Y-57449829D02*
X140839333Y-57449829D01*
X140839333Y-57449829D02*
X140982190Y-57497448D01*
X140982190Y-57497448D02*
X141553619Y-58068876D01*
X141553619Y-58068876D02*
X141553619Y-57449829D01*
X140553619Y-56830781D02*
X140553619Y-56735543D01*
X140553619Y-56735543D02*
X140601238Y-56640305D01*
X140601238Y-56640305D02*
X140648857Y-56592686D01*
X140648857Y-56592686D02*
X140744095Y-56545067D01*
X140744095Y-56545067D02*
X140934571Y-56497448D01*
X140934571Y-56497448D02*
X141172666Y-56497448D01*
X141172666Y-56497448D02*
X141363142Y-56545067D01*
X141363142Y-56545067D02*
X141458380Y-56592686D01*
X141458380Y-56592686D02*
X141506000Y-56640305D01*
X141506000Y-56640305D02*
X141553619Y-56735543D01*
X141553619Y-56735543D02*
X141553619Y-56830781D01*
X141553619Y-56830781D02*
X141506000Y-56926019D01*
X141506000Y-56926019D02*
X141458380Y-56973638D01*
X141458380Y-56973638D02*
X141363142Y-57021257D01*
X141363142Y-57021257D02*
X141172666Y-57068876D01*
X141172666Y-57068876D02*
X140934571Y-57068876D01*
X140934571Y-57068876D02*
X140744095Y-57021257D01*
X140744095Y-57021257D02*
X140648857Y-56973638D01*
X140648857Y-56973638D02*
X140601238Y-56926019D01*
X140601238Y-56926019D02*
X140553619Y-56830781D01*
X140648857Y-56116495D02*
X140601238Y-56068876D01*
X140601238Y-56068876D02*
X140553619Y-55973638D01*
X140553619Y-55973638D02*
X140553619Y-55735543D01*
X140553619Y-55735543D02*
X140601238Y-55640305D01*
X140601238Y-55640305D02*
X140648857Y-55592686D01*
X140648857Y-55592686D02*
X140744095Y-55545067D01*
X140744095Y-55545067D02*
X140839333Y-55545067D01*
X140839333Y-55545067D02*
X140982190Y-55592686D01*
X140982190Y-55592686D02*
X141553619Y-56164114D01*
X141553619Y-56164114D02*
X141553619Y-55545067D01*
X140553619Y-54640305D02*
X140553619Y-55116495D01*
X140553619Y-55116495D02*
X141029809Y-55164114D01*
X141029809Y-55164114D02*
X140982190Y-55116495D01*
X140982190Y-55116495D02*
X140934571Y-55021257D01*
X140934571Y-55021257D02*
X140934571Y-54783162D01*
X140934571Y-54783162D02*
X140982190Y-54687924D01*
X140982190Y-54687924D02*
X141029809Y-54640305D01*
X141029809Y-54640305D02*
X141125047Y-54592686D01*
X141125047Y-54592686D02*
X141363142Y-54592686D01*
X141363142Y-54592686D02*
X141458380Y-54640305D01*
X141458380Y-54640305D02*
X141506000Y-54687924D01*
X141506000Y-54687924D02*
X141553619Y-54783162D01*
X141553619Y-54783162D02*
X141553619Y-55021257D01*
X141553619Y-55021257D02*
X141506000Y-55116495D01*
X141506000Y-55116495D02*
X141458380Y-55164114D01*
D11*
X126134019Y-57073562D02*
X125657828Y-57406895D01*
X126134019Y-57644990D02*
X125134019Y-57644990D01*
X125134019Y-57644990D02*
X125134019Y-57264038D01*
X125134019Y-57264038D02*
X125181638Y-57168800D01*
X125181638Y-57168800D02*
X125229257Y-57121181D01*
X125229257Y-57121181D02*
X125324495Y-57073562D01*
X125324495Y-57073562D02*
X125467352Y-57073562D01*
X125467352Y-57073562D02*
X125562590Y-57121181D01*
X125562590Y-57121181D02*
X125610209Y-57168800D01*
X125610209Y-57168800D02*
X125657828Y-57264038D01*
X125657828Y-57264038D02*
X125657828Y-57644990D01*
X126134019Y-56121181D02*
X126134019Y-56692609D01*
X126134019Y-56406895D02*
X125134019Y-56406895D01*
X125134019Y-56406895D02*
X125276876Y-56502133D01*
X125276876Y-56502133D02*
X125372114Y-56597371D01*
X125372114Y-56597371D02*
X125419733Y-56692609D01*
X126134019Y-54406895D02*
X126134019Y-54978323D01*
X126134019Y-54692609D02*
X125134019Y-54692609D01*
X125134019Y-54692609D02*
X125276876Y-54787847D01*
X125276876Y-54787847D02*
X125372114Y-54883085D01*
X125372114Y-54883085D02*
X125419733Y-54978323D01*
X125134019Y-53787847D02*
X125134019Y-53692609D01*
X125134019Y-53692609D02*
X125181638Y-53597371D01*
X125181638Y-53597371D02*
X125229257Y-53549752D01*
X125229257Y-53549752D02*
X125324495Y-53502133D01*
X125324495Y-53502133D02*
X125514971Y-53454514D01*
X125514971Y-53454514D02*
X125753066Y-53454514D01*
X125753066Y-53454514D02*
X125943542Y-53502133D01*
X125943542Y-53502133D02*
X126038780Y-53549752D01*
X126038780Y-53549752D02*
X126086400Y-53597371D01*
X126086400Y-53597371D02*
X126134019Y-53692609D01*
X126134019Y-53692609D02*
X126134019Y-53787847D01*
X126134019Y-53787847D02*
X126086400Y-53883085D01*
X126086400Y-53883085D02*
X126038780Y-53930704D01*
X126038780Y-53930704D02*
X125943542Y-53978323D01*
X125943542Y-53978323D02*
X125753066Y-54025942D01*
X125753066Y-54025942D02*
X125514971Y-54025942D01*
X125514971Y-54025942D02*
X125324495Y-53978323D01*
X125324495Y-53978323D02*
X125229257Y-53930704D01*
X125229257Y-53930704D02*
X125181638Y-53883085D01*
X125181638Y-53883085D02*
X125134019Y-53787847D01*
X126134019Y-53025942D02*
X125134019Y-53025942D01*
X125753066Y-52930704D02*
X126134019Y-52644990D01*
X125467352Y-52644990D02*
X125848304Y-53025942D01*
D12*
%TO.C,R1 10k*%
X126049300Y-59385076D02*
X126049300Y-59894524D01*
X125004300Y-59385076D02*
X125004300Y-59894524D01*
%TO.C,U2*%
X127316900Y-62672200D02*
X127316900Y-61062200D01*
X127316900Y-62672200D02*
X129316900Y-62672200D01*
X127596900Y-56632200D02*
X139856900Y-56632200D01*
X127596900Y-62382200D02*
X127596900Y-56642200D01*
X139856900Y-56632200D02*
X139856900Y-62392200D01*
X139856900Y-62392200D02*
X127606900Y-62392200D01*
D11*
%TO.C,TP1*%
X136641469Y-54381400D02*
G75*
G02*
X130617331Y-54381400I-3012069J0D01*
G01*
X130617331Y-54381400D02*
G75*
G02*
X136641469Y-54381400I3012069J0D01*
G01*
%TD*%
M02*
